<svg width="28px" height="22px" version="1.1" viewBox="-10 0 1918 1536" xmlns="http://www.w3.org/2000/svg">
 <g>
  <rect x="1007" y="190" width="364" height="517" fill="#f00" style="paint-order:normal"/>
  <rect x="1007.5" y="738" width="363.46" height="519" fill="#00f" style="paint-order:normal"/>
  <rect x="1371" y="175" width="448.5" height="475" fill="#008000" style="paint-order:normal"/>
  <rect x="1371" y="726" width="448.5" height="478" fill="#ff0" style="paint-order:normal"/>
 </g>
 <path d="m58 121v59l-68 28v-58z"/>
 <path d="m51 312v53l-55 25v-52z" fill="#f00"/>
 <path d="m51 504v52l-55 25v-52z" fill="#f00"/>
 <path d="m58 693v59l-68 28v-57z"/>
 <path d="m51 892v51l-55 25v-52z" fill="#00f"/>
 <path d="m51 1086v52l-55 25v-51z" fill="#00f"/>
 <path d="m58 1273v60l-68 28v-57z"/>
 <path d="m230 154v69l-92 35v-68z"/>
 <path d="m225 354v63l-74 29v-63z" fill="#f00"/>
 <path d="m225 547v62l-74 29v-64z" fill="#f00"/>
 <path d="m230 733v68l-92 36v-68z"/>
 <path d="m225 933v62l-74 30v-64z" fill="#00f"/>
 <path d="m225 1128v62l-74 30v-63z" fill="#00f"/>
 <path d="m230 1315v68l-92 38v-68z"/>
 <path d="m402 197v82l-119 47v-81z"/>
 <path d="m396 398v73l-100 39v-71z" fill="#f00"/>
 <path d="m396 591v72l-100 40v-72z" fill="#f00"/>
 <path d="m402 776v82l-119 47v-81z"/>
 <path d="m396 977v72l-100 41v-72z" fill="#00f"/>
 <path d="m396 1164v74l-100 40v-72z" fill="#00f"/>
 <path d="m402 1351v82l-119 48v-82z"/>
 <path d="m590 192v108l-149 60v-107z"/>
 <path d="m582 393v99l-125 51v-99z" fill="#f00"/>
 <path d="m582 586v98l-125 51v-99z" fill="#f00"/>
 <path d="m590 772v108l-149 59v-108z"/>
 <path d="m582 973v99l-125 50v-99z" fill="#00f"/>
 <path d="m582 1160v99l-125 50v-98z" fill="#00f"/>
 <path d="m590 1346v108l-149 60v-107z"/>
 <path d="m787 174v141l-166 68v-141z"/>
 <path d="m779 386v118l-142 57v-119z" fill="#f00"/>
 <path d="m779 570v119l-142 56v-118z" fill="#f00"/>
 <path d="m787 753v141l-166 67v-141z"/>
 <path d="m779 964v120l-142 55v-118z" fill="#00f"/>
 <path d="m779 1152v119l-142 57v-119z" fill="#00f"/>
 <g>
  <path d="m787 1328v141l-166 67v-141z"/>
  <path d="m988 103v193l-177 74v-180c61.333-35.333 120.33-64.333 177-87z"/>
  <path d="m988 316v167l-177 75v-168z"/>
  <path d="m988 504v169l-177 75v-169z"/>
  <path d="m988 694v167l-177 75v-168z"/>
  <path d="m988 882v172l-177 76v-173z"/>
  <path d="m988 1075v168l-177 77v-170z"/>
  <path d="m988 1264v180c-69.333 26.667-128.33 52.333-177 77v-181z"/>
  <path transform="translate(-10)" d="m1474 0c-149.33 0-301.67 31.667-457 95v190c106-44.667 208-76.333 306-95v427c-108.67 16-210.67 46-306 90v129c110-53.333 212-86 306-98v440c-111.33 16-213.33 42.333-306 79v180c174.67-58.667 332.67-88 474-88 170.67 0 313 37.333 427 112v-1351c-135.33-73.333-283.33-110-444-110zm1 175c103.33 0 192 18.667 266 56v419c-86-28-173.33-42-262-42l-40 1v-432c12-1.3333 24-2 36-2zm2 551c96.667 0 184.67 17.333 264 52v426c-78-24-165.33-36-262-36h-40v-440c13.333-1.3333 26-2 38-2z"/>
 </g>
</svg>
